# AST/ASF file generated using VICON BodyLanguage
# -----------------------------------------------
:version 1.10
:name VICON
:units
  mass 1.0
  length 0.45
  angle deg
:documentation
   .ast/.asf automatically generated from VICON data using
   VICON BodyBuilder and BodyLanguage model FoxedUp or BRILLIANT.MOD
:root
   order TX TY TZ RX RY RZ
   axis XYZ
   position 0 0 0  
   orientation 0 0 0 
:bonedata
  begin
     id 1 
     name lhipjoint
     direction 0.822369 -0.411937 0.392449 
     length 3.8167 
     axis 0 0 0  XYZ
  end
  begin
     id 2 
     name lfemur
     direction 0.34202 -0.939693 0  
     length 6.16791  
     axis 0 0 20  XYZ
    dof rx ry rz
    limits (-160.0 20.0)
           (-70.0 70.0)
           (-60.0 70.0)
  end
  begin
     id 3 
     name ltibia
     direction 0.34202 -0.939693 0   
     length 7.07101   
     axis 0 0 20   XYZ
    dof rx
    limits (-10.0 170.0)
  end
  begin
     id 4 
     name lfoot
     direction 0.028254 -0.0776273 0.996582   
     length 1.66799   
     axis -90 7.62852e-016 20   XYZ
    dof rx rz
    limits (-45.0 90.0)
           (-70.0 20.0)
  end
  begin
     id 5 
     name ltoes
     direction 1.53483e-011 -4.21688e-011 1   
     length 0.851674   
     axis -90 7.62852e-016 20   XYZ
    dof rx
    limits (-90.0 20.0)
  end
  begin
     id 6 
     name rhipjoint
     direction -0.822466 -0.411836 0.392353   
     length 3.81764  
     axis 0 0 0  XYZ 
  end
  begin
     id 7 
     name rfemur
     direction -0.34202 -0.939693 0   
     length 6.28636   
     axis 0 0 -20   XYZ
    dof rx ry rz
    limits (-160.0 20.0)
           (-70.0 70.0)
           (-70.0 60.0)
  end
  begin
     id 8 
     name rtibia
     direction -0.34202 -0.939693 0   
     length 6.85621   
     axis 0 0 -20   XYZ
    dof rx
    limits (-10.0 170.0)
 end
 begin
     id 9 
     name rfoot
     direction -0.0553036 -0.151945 0.98684   
     length 1.57293  
     axis -90 -7.62852e-016 -20   XYZ
    dof rx rz
    limits (-45.0 90.0)
           (-20.0 70.0)
  end
  begin
     id 10 
     name rtoes
     direction -1.53592e-011 -4.21964e-011 1   
     length 0.802812   
     axis -90 -7.62852e-016 -20   XYZ
    dof rx
    limits (-90.0 20.0)
  end
  begin
     id 11 
     name lowerback
     direction 0.00654913 0.996475 -0.0836396   
     length 1.97212   
     axis 0 0 0   XYZ
    dof rx ry rz
    limits (-20.0 45.0)
           (-30.0 30.0)
           (-30.0 30.0)
  end
  begin
     id 12 
     name upperback
     direction 0.0111875 0.994527 0.103877   
     length 1.89704   
     axis 0 0 0   XYZ
    dof rx ry rz
    limits (-20.0 45.0)
           (-30.0 30.0)
           (-30.0 30.0)
  end
  begin
     id 13 
     name thorax
     direction 0.00473652 0.989004 0.147814   
     length 1.94516   
     axis 0 0 0   XYZ
    dof rx ry rz
    limits (-20.0 45.0)
           (-30.0 30.0)
           (-30.0 30.0)
  end
  begin
     id 14 
     name lowerneck
     direction -0.00925808 0.999011 0.0434791   
     length 1.81771   
     axis 0 0 0   XYZ
    dof rx ry rz
    limits (-20.0 45.0)
           (-30.0 30.0)
           (-30.0 30.0)
  end
  begin
     id 15 
     name upperneck
     direction 0.00451595 0.964412 -0.264365   
     length 1.80434   
     axis 0 0 0   XYZ
    dof rx ry rz
    limits (-20.0 45.0)
           (-30.0 30.0)
           (-30.0 30.0)
  end
  begin
     id 16
     name head
     direction -0.00110849 0.995756 -0.0920241  
     length 1.84006  
     axis 0 0 0   XYZ
    dof rx ry rz
    limits (-20.0 45.0)
           (-30.0 30.0)
           (-30.0 30.0)
  end
  begin
     id 17 
     name lclavicle
     direction 0.921253 0.385213 0.0538957  
     length 3.67415  
     axis 0 0 0   XYZ
    dof ry rz
    limits (-20.0 10.0)
           (0.0 20.0)
  end
  begin
     id 18 
     name lhumerus
     direction 1 -4.48961e-011 6.73441e-028   
     length 4.32712   
     axis 180 -30 -90   XYZ
    dof rx ry rz
    limits (-60.0 90.0)
           (-90.0 90.0)
           (-90.0 90.0)
  end
  begin
     id 19
     name lradius
     direction 1 -4.48985e-011 -9.53507e-028   
     length 3.28587   
     axis 180 -30 -90   XYZ
    dof rx
    limits (-10.0 170.0)
  end
  begin
     id 20
     name lwrist
     direction 1 -4.48951e-011 -4.67472e-027   
     length 1.64293   
     axis 1.65735e-015 90 90   XYZ
    dof ry
    limits (-180.0 0.0)
 end
  begin
     id 21 
     name lhand
     direction 1 -4.48946e-011 -9.34945e-027   
     length 0.433158   
     axis 5.96574e-015 90 90   XYZ
    dof rx rz
    limits (-90.0 90.0)
           (-45.0 45.0)
  end
  begin
     id 22 
     name lfingers
     direction 1 -4.48882e-011 -1.86989e-026   
     length 0.349224   
     axis 1.19315e-014 90 90   XYZ
    dof rx
    limits (0.0 90.0)
  end
  begin
     id 23
     name lthumb
     direction 0.707107 -6.3493e-011 0.707107   
     length 0.501417   
     axis -90 45 2.85299e-015   XYZ
    dof rx rz
    limits (-45.0 45.0)
           (-45.0 45.0)
  end
  begin
     id 24 
     name rclavicle
     direction -0.884378 0.46502 -0.0403866   
     length 3.50218  
     axis 0 0 0   XYZ 
    dof ry rz
    limits (-10.0 20.0)
           (-20.0 0.0)
  end
  begin
     id 25 
     name rhumerus
     direction -1 -4.48964e-011 1.58188e-027  
     length 4.29104   
     axis 180 30 90   XYZ
    dof rx ry rz
    limits (-90.0 60.0)
           (-90.0 90.0)
           (-90.0 90.0)
  end
  begin
     id 26 
     name rradius
     direction -1 -4.48978e-011 -1.9722e-027   
     length 3.2272   
     axis 180 30 90   XYZ
    dof rx
    limits (-10.0 170.0)
  end
  begin
     id 27 
     name rwrist
     direction -1 -4.48969e-011 -4.67472e-027   
     length 1.6136   
     axis 1.65735e-015 -90 -90   XYZ
    dof ry
    limits (-180.0 0.0)
  end
  begin
     id 28
     name rhand
     direction -1 -4.48846e-011 -9.34945e-027   
     length 0.543623   
     axis 5.96574e-015 -90 -90   XYZ
    dof rx rz
    limits (-90.0 90.0)
           (-45.0 45.0)
  end
  begin
     id 29
     name rfingers
     direction -1 -4.49074e-011 -1.86989e-026   
     length 0.438283   
     axis 1.19315e-014 -90 -90   XYZ
    dof rx
    limits (0.0 90.0)
  end
  begin
     id 30
     name rthumb
     direction -0.707107 -6.34834e-011 0.707107   
     length 0.629289   
     axis -90 -45 -2.85299e-015   XYZ
    dof rx rz
    limits (-45.0 45.0)
           (-45.0 45.0)
  end
:hierarchy
  begin
    root lhipjoint rhipjoint lowerback
    lhipjoint lfemur
    lfemur ltibia
    ltibia lfoot
    lfoot ltoes
    rhipjoint rfemur
    rfemur rtibia
    rtibia rfoot
    rfoot rtoes
    lowerback upperback
    upperback thorax
    thorax lowerneck lclavicle rclavicle
    lowerneck upperneck
    upperneck head
    lclavicle lhumerus
    lhumerus lradius
    lradius lwrist
    lwrist lhand lthumb
    lhand lfingers
    rclavicle rhumerus
    rhumerus rradius
    rradius rwrist
    rwrist rhand rthumb
    rhand rfingers
  end

#!OML:ASF H:\GeneralSubjects\Female5\Project 1\Capture day 1\Session 1\Female5.ASF
:FULLY-SPECIFIED
:DEGREES
292
root -7.39281 15.9348 4.73788 4.39491 -5.17971 0.45552
lowerback 26.9361 5.07178 1.58283
upperback -16.766 7.75333 -3.18605
thorax -48.0082 -0.992316 -11.8044
lowerneck 1.5033 -3.5758 3.35961
upperneck 55.5287 -6.5444 0.453067
head 23.7151 -1.63436 -1.39368
rclavicle -2.8625e-014 -2.38542e-015
rhumerus -79.1019 2.5769 -88.4455
rradius 40.834
rwrist -7.23953
rhand -26.1645 -21.226
rfingers 7.12502
rthumb 0.386838 -51.2054
lclavicle -2.8625e-014 -2.38542e-015
lhumerus -74.1289 -20.9428 77.9948
lradius 39.7385
lwrist -6.48218
lhand -27.9508 25.7614
lfingers 7.12502
lthumb -1.33835 55.7369
rfemur -18.0148 -6.9769 23.1568
rtibia 51.9663
rfoot -12.0088 -15.9067
rtoes -19.1242
lfemur -11.0137 -15.5669 -33.5615
ltibia 13.8147
lfoot -26.7673 5.48727
ltoes -35.834
293
root -7.40019 15.9497 4.90762 4.37373 -4.90886 0.660271
lowerback 27.1168 5.02745 1.46201
upperback -16.6821 7.61349 -3.19889
thorax -48.0598 -0.989625 -11.6657
lowerneck 1.34594 -3.61661 3.48193
upperneck 55.5521 -6.49167 0.140631
head 23.7564 -1.61168 -1.5944
rclavicle 7.79236e-014 -1.51076e-014
rhumerus -78.9539 2.60427 -88.0865
rradius 41.1851
rwrist -7.79072
rhand -26.5292 -21.2988
rfingers 7.12502
rthumb 0.0345979 -51.2786
lclavicle 7.79236e-014 -1.51076e-014
lhumerus -74.0578 -21.1248 78.0727
lradius 39.9003
lwrist -6.51487
lhand -28.0884 25.8002
lfingers 7.12502
lthumb -1.4713 55.7748
rfemur -20.3356 -6.59849 23.3742
rtibia 50.5369
rfoot -13.3285 -16.5197
rtoes -24.5924
lfemur -9.99272 -15.5145 -34.0444
ltibia 13.2772
lfoot -26.8055 5.30063
ltoes -36.3046
294
root -7.40818 15.962 5.07844 4.40052 -4.62753 0.851497
lowerback 27.2305 4.96831 1.47156
upperback -16.6428 7.52736 -3.20824
thorax -48.1645 -1.03499 -11.6544
lowerneck 1.71805 -3.56997 3.3376
upperneck 55.3987 -6.33449 0.165409
head 23.4483 -1.59293 -1.50441
rclavicle -1.98785e-014 5.56597e-015
rhumerus -79.0523 2.72219 -87.8054
rradius 41.527
rwrist -8.24648
rhand -26.4648 -20.5859
rfingers 7.12502
rthumb 0.0967885 -50.5656
lclavicle -1.98785e-014 5.56597e-015
lhumerus -74.2856 -21.363 78.3072
lradius 40.1491
lwrist -6.4486
lhand -28.0641 26.1465
lfingers 7.12502
lthumb -1.44782 56.1213
rfemur -22.4216 -6.13473 23.4939
rtibia 48.3705
rfoot -13.7104 -16.9398
rtoes -30.2704
lfemur -8.98609 -15.696 -34.4718
ltibia 12.6347
lfoot -26.9538 5.12658
ltoes -36.4425
295
root -7.41543 15.9691 5.24643 4.50084 -4.32463 1.00495
lowerback 27.4186 4.98276 1.06568
upperback -16.5595 7.36382 -3.12875
thorax -48.3394 -0.890456 -11.1554
lowerneck 1.20948 -3.63208 3.58189
upperneck 55.4558 -6.3683 -0.172269
head 23.6562 -1.56501 -1.77007
rclavicle 3.18055e-014 4.05521e-014
rhumerus -78.9629 2.98335 -87.4921
rradius 41.8785
rwrist -8.46241
rhand -26.0071 -19.1071
rfingers 7.12502
rthumb 0.538856 -49.0862
lclavicle 3.18055e-014 4.05521e-014
lhumerus -74.1619 -21.2472 78.3733
lradius 40.2789
lwrist -6.64828
lhand -27.9633 26.1969
lfingers 7.12502
lthumb -1.3505 56.1724
rfemur -24.2945 -5.13254 23.4736
rtibia 45.6847
rfoot -14.5962 -17.0706
rtoes -33.4004
lfemur -8.09305 -15.9813 -34.8969
ltibia 12.1251
lfoot -26.4352 5.67196
ltoes -38.9656
296
root -7.42194 15.9756 5.41475 4.5848 -3.95975 1.15022
lowerback 27.5297 4.97916 1.19454
upperback -16.5211 7.39759 -3.22684
thorax -48.3338 -0.993178 -11.4491
lowerneck 1.05919 -3.70919 3.63973
upperneck 55.5407 -6.5329 -0.128058
head 23.8112 -1.59382 -1.78841
rclavicle -2.06736e-014 -1.11319e-014
rhumerus -79.0313 2.7944 -87.2342
rradius 42.1725
rwrist -8.41044
rhand -25.5628 -18.2321
rfingers 7.12502
rthumb 0.967964 -48.2096
lclavicle -2.06736e-014 -1.11319e-014
lhumerus -73.9997 -21.5995 78.4102
lradius 40.2305
lwrist -6.83367
lhand -27.9237 25.8083
lfingers 7.12502
lthumb -1.31226 55.784
rfemur -25.7764 -3.72503 23.2078
rtibia 42.4578
rfoot -15.8428 -16.7615
rtoes -33.0261
lfemur -7.23084 -16.3191 -35.3318
ltibia 11.7211
lfoot -26.3167 5.9293
ltoes -40.2386
297
root -7.43423 15.983 5.58547 4.6272 -3.57292 1.41631
lowerback 27.646 4.95956 1.3594
upperback -16.4767 7.39773 -3.39981
thorax -48.3146 -1.15733 -11.8729
lowerneck 1.23903 -3.7251 3.58448
upperneck 55.4608 -6.5993 0.0837596
head 23.6763 -1.61043 -1.6514
rclavicle 7.15625e-015 3.26007e-014
rhumerus -79.2003 2.54143 -87.0041
rradius 42.3898
rwrist -8.32307
rhand -25.2583 -17.8372
rfingers 7.12502
rthumb 1.26211 -47.8132
lclavicle 7.15625e-015 3.26007e-014
lhumerus -73.9679 -22.0998 78.5
lradius 40.2138
lwrist -7.03183
lhand -27.7539 25.4675
lfingers 7.12502
lthumb -1.14825 55.4442
rfemur -26.7634 -1.87632 22.5855
rtibia 38.5004
rfoot -16.9685 -16.4292
rtoes -31.7977
lfemur -6.34054 -16.2042 -35.9511
ltibia 11.4917
lfoot -26.6395 3.99058
ltoes -36.8806
